<?xml version="1.0" encoding="UTF-8"?>
<svg id="Layer_2" data-name="Layer 2" xmlns="http://www.w3.org/2000/svg" viewBox="0 0 151.69 24.1">
  <defs>
    <style>
      .cls-1 {
        fill: #fff;
      }
    </style>
  </defs>
  <g id="Layer_1-2" data-name="Layer 1">
    <g>
      <g>
        <g>
          <g>
            <path class="cls-1" d="M74.18,14.62l-7.09-13.99s-.05-.06-.09-.06h-5.3c-.06,0-.1.05-.1.1v22.88h4.32v-15.49c.14.3,8.14,15.49,8.14,15.49h.24l7.7-14.61c.17-.3.3-.61.44-.91v15.53h4.32V.68c0-.06-.05-.1-.1-.1h-5.3s-.08.02-.09.06l-7.06,13.99Z"/>
            <path class="cls-1" d="M118.11,4.59h.03v18.97h4.29V5.01c0-.23.19-.42.42-.42h6.3V.57h-7.01l-4.02,4.02Z"/>
            <rect class="cls-1" x="111.42" y=".57" width="6.69" height="4.02"/>
            <path class="cls-1" d="M147.51,15.53c-1.11,2.87-3.51,4.66-6.55,4.66-4.46,0-7.22-3.58-7.22-8.14s2.8-8.1,7.22-8.1c2.97,0,5.28,1.72,6.41,4.43.02.05.08.08.13.06l4.02-1.45c.06-.02.08-.08.06-.14-1.81-4.33-5.8-6.85-10.59-6.85-6.99,0-11.92,5.1-11.92,12.05s4.93,12.05,11.92,12.05c4.89,0,8.95-2.6,10.7-7.06l-4.19-1.52Z"/>
          </g>
          <path class="cls-1" d="M88.73,23.46l5.58-7.8c.25-.34.52-.67.83-.96l3.05-2.99-3.02-2.97c-.3-.3-.58-.62-.83-.97l-5.06-7.1v-.1h5.13l5.37,7.76,5.47-7.76h4.96v.1l-5.1,7.09c-.24.34-.52.66-.82.95l-3.09,3.03,2.99,2.91c.31.3.59.63.84.98l5.62,7.83v.1h-5.2l-5.87-8.41-5.87,8.41h-4.96v-.1Z"/>
        </g>
        <g>
          <line class="cls-1" x1="22.21" y1=".56" x2="28.81" y2="8.48"/>
          <g>
            <line class="cls-1" x1="28.81" y1="8.48" x2="35.41" y2=".56"/>
            <line class="cls-1" x1="48.78" y1="19.4" x2="36.94" y2="5.19"/>
            <path class="cls-1" d="M38.47.56h-3.06l-6.6,7.92h5.39l2.74-3.29,11.84,14.21h-10.87L22.21.56h-3.06L0,23.54h21.65l7.16-8.59,7.16,8.59h21.65L38.47.56ZM19.71,19.4h-10.87l11.84-14.21,5.44,6.52-6.41,7.69Z"/>
          </g>
        </g>
      </g>
      <g>
        <polygon class="cls-1" points="41.8 .74 42.32 .74 42.32 2.07 42.52 2.07 42.52 .74 43.03 .74 43.03 .55 41.8 .55 41.8 .74"/>
        <polygon class="cls-1" points="44.61 .55 44.01 1.53 43.42 .55 43.28 .55 43.28 2.07 43.48 2.07 43.48 1 43.94 1.76 44.09 1.76 44.55 1.01 44.55 2.07 44.75 2.07 44.75 .55 44.61 .55"/>
      </g>
    </g>
  </g>
</svg>